<svg width="32" height="32" viewBox="0 0 32 32" fill="none" xmlns="http://www.w3.org/2000/svg">
  <defs>
    <linearGradient id="gradient" x1="0%" y1="0%" x2="100%" y2="100%">
      <stop offset="0%" style="stop-color:#3B82F6;stop-opacity:1" />
      <stop offset="100%" style="stop-color:#8B5CF6;stop-opacity:1" />
    </linearGradient>
  </defs>
  
  <!-- Background Circle -->
  <circle cx="16" cy="16" r="14" fill="url(#gradient)" />
  
  <!-- Store Icon -->
  <path d="M8 12V10C8 8.89543 8.89543 8 10 8H22C23.1046 8 24 8.89543 24 10V12" stroke="white" stroke-width="1.5" stroke-linecap="round"/>
  <path d="M6 12H26L25 22C25 23.1046 24.1046 24 23 24H9C7.89543 24 7 23.1046 7 22L6 12Z" stroke="white" stroke-width="1.5" stroke-linecap="round" stroke-linejoin="round"/>
  
  <!-- Multi Account Dots -->
  <circle cx="12" cy="16" r="1.5" fill="white"/>
  <circle cx="16" cy="16" r="1.5" fill="white"/>
  <circle cx="20" cy="16" r="1.5" fill="white"/>
  
  <!-- Turbo Lines -->
  <path d="M10 20L14 20" stroke="white" stroke-width="1" stroke-linecap="round"/>
  <path d="M18 20L22 20" stroke="white" stroke-width="1" stroke-linecap="round"/>
</svg>